<svg xmlns="http://www.w3.org/2000/svg" width="41" height="40" fill="none"><g fill="#292929" clip-path="url(#a)"><path d="M13.933 40a6.669 6.669 0 0 0 6.667-6.666v-6.667h-6.667a6.67 6.67 0 0 0-6.666 6.667A6.67 6.67 0 0 0 13.933 40ZM7.267 20a6.67 6.67 0 0 1 6.666-6.667H20.6v13.333h-6.667A6.67 6.67 0 0 1 7.267 20ZM7.267 6.667A6.67 6.67 0 0 1 13.933 0H20.6v13.333h-6.667a6.67 6.67 0 0 1-6.666-6.666ZM20.6 0h6.666a6.67 6.67 0 0 1 6.667 6.667 6.67 6.67 0 0 1-6.666 6.666H20.6V0ZM33.933 20a6.67 6.67 0 0 1-6.666 6.666A6.669 6.669 0 0 1 20.6 20a6.67 6.67 0 0 1 6.666-6.667A6.67 6.67 0 0 1 33.934 20Z"/></g><defs><clipPath id="a"><path fill="#fff" d="M.6 0h40v40H.6z"/></clipPath></defs></svg>