<svg xmlns="http://www.w3.org/2000/svg" width="221" height="220" fill="none"><path fill="#fff" d="M220.5 110c0 60.751-49.249 110-110 110S.5 170.751.5 110 49.749 0 110.5 0s110 49.249 110 110Zm-187 0c0 42.526 34.474 77 77 77s77-34.474 77-77-34.474-77-77-77-77 34.474-77 77Z"/><path fill="url(#a)" d="M44.386 176.114c-6.444 6.444-17.01 6.505-22.419-.83a110 110 0 1 1 40.994 33.914c-8.217-3.939-10.138-14.329-5.016-21.866 5.122-7.537 15.354-9.301 23.807-5.899a77 77 0 1 0-36.033-29.809c4.926 7.666 5.11 18.047-1.333 24.49Z"/><defs><linearGradient id="a" x1=".5" x2="220.5" y1="110" y2="110" gradientUnits="userSpaceOnUse"><stop stop-color="#FA709A"/><stop offset="1" stop-color="#FEE140"/></linearGradient></defs></svg>