<svg xmlns="http://www.w3.org/2000/svg" width="40" height="40" fill="none"><g clip-path="url(#a)"><path fill="#000" d="M21.25 20c0 5.859-4.486 10.625-10 10.625s-10-4.766-10-10.625 4.486-10.625 10-10.625 10 4.766 10 10.625Zm7.5-10c-.888 0-2.562.431-3.8 3.32-.774 1.805-1.2 4.177-1.2 6.68s.426 4.875 1.2 6.68c1.238 2.889 2.912 3.32 3.8 3.32.888 0 2.562-.431 3.8-3.32.774-1.805 1.2-4.177 1.2-6.68s-.426-4.875-1.2-6.68c-1.238-2.889-2.912-3.32-3.8-3.32Zm8.75 0a1.25 1.25 0 0 0-1.25 1.25v17.5a1.25 1.25 0 0 0 2.5 0v-17.5A1.25 1.25 0 0 0 37.5 10Z"/></g><defs><clipPath id="a"><path fill="#fff" d="M0 0h40v40H0z"/></clipPath></defs></svg>