<svg width="150" height="125" fill="none" xmlns="http://www.w3.org/2000/svg"><g clip-path="url(#a)" stroke="#fff" stroke-width="2"><path d="M2.109 0c-4.589 13.647-4.69 43.5 31.61 53.736 25.794 7.273 38.185 19.284 43.319 28.688 3.25 5.954 4.152 13.105 8.185 18.56 10.643 14.394 32.999 26.966 66.777.858"/><path d="M19.109-13c-4.589 12.364-4.69 39.41 31.61 48.684 24.286 6.204 36.69 16.213 42.342 24.473 4.179 6.106 5.336 14.056 10.238 19.599 11.033 12.478 33.021 22.396 65.701-.489"/><path d="M33.109-32c-4.589 11.898-4.69 37.924 31.61 46.847 23.673 5.819 36.056 15.117 41.901 22.944 4.577 6.129 5.873 14.413 11.141 19.96 11.179 11.769 33.01 20.752 65.239-.965"/><path d="M58.109-43c-4.589 11.898-4.69 37.924 31.61 46.847 23.673 5.819 36.056 15.117 41.901 22.944 4.577 6.129 5.873 14.413 11.141 19.96 11.179 11.769 33.01 20.752 65.239-.965"/></g><defs><clipPath id="a"><path fill="#fff" d="M0 0h150v125H0z"/></clipPath></defs></svg>