<svg width="150" height="125" fill="none" xmlns="http://www.w3.org/2000/svg"><g clip-path="url(#a)" stroke="#fff" stroke-width="2"><path d="M147.891 125c4.589-13.647 4.691-43.5-31.609-53.736-25.795-7.273-38.186-19.284-43.32-28.688-3.25-5.954-4.152-13.105-8.185-18.56C54.134 9.622 31.778-2.95-2 23.158"/><path d="M130.891 138c4.589-12.364 4.691-39.41-31.61-48.684-24.286-6.204-36.69-16.213-42.342-24.473-4.179-6.106-5.336-14.056-10.237-19.599C35.668 32.767 13.68 22.849-19 45.733"/><path d="M116.891 157c4.589-11.898 4.691-37.924-31.61-46.847-23.673-5.819-36.056-15.117-41.901-22.944-4.577-6.129-5.873-14.413-11.141-19.96C21.059 55.48-.771 46.498-33 68.215"/><path d="M91.891 168c4.589-11.898 4.69-37.924-31.61-46.847-23.673-5.819-36.056-15.117-41.901-22.944-4.577-6.129-5.873-14.413-11.141-19.96-11.18-11.769-33.01-20.752-65.239.965"/></g><defs><clipPath id="a"><path fill="#fff" transform="rotate(180 75 62.5)" d="M0 0h150v125H0z"/></clipPath></defs></svg>