<svg width="40" height="40" fill="none" xmlns="http://www.w3.org/2000/svg"><path d="M30.14 7.58c-3.04.093-3.038 4.467 0 4.56 3.04-.094 3.04-4.468 0-4.56ZM20 10.22c-5.388 0-9.756 4.378-9.756 9.78.514 12.975 19 12.972 19.511 0 0-5.402-4.367-9.78-9.755-9.78Zm0 16.13c-3.497 0-6.332-2.843-6.332-6.35C14 11.58 26 11.58 26.333 20c0 3.507-2.836 6.35-6.333 6.35Z" fill="#292929"/><path d="M38.883 12.167c-.14-6.667-4.382-10.91-11.05-11.05-1.602-.155-14.063-.157-15.666 0-6.667.14-10.91 4.382-11.05 11.05-.155 1.6-.158 14.065 0 15.666.124 6.645 4.404 10.926 11.05 11.05 1.601.156 14.063.156 15.665 0 2.022-.092 3.404-.413 4.612-.883 4.235-1.691 6.304-5.454 6.44-10.168.154-1.6.156-14.062 0-15.665ZM27.676 35.464c-1.575.15-13.776.153-15.353 0-1.852-.085-2.858-.394-3.527-.654-5.78-2.681-3.988-8.102-4.26-15.544.006-1.728-.004-5.214 0-6.942.23-5.153 2.658-7.539 7.787-7.788 1.578-.15 13.775-.152 15.353 0 5.155.231 7.538 2.658 7.788 7.787.102 1.232.176 7.955 0 11.357.19 6.39-.102 11.409-7.788 11.784Z" fill="#292929"/></svg>